<?xml version="1.0" encoding="UTF-8"?><svg id="Layer_1" xmlns="http://www.w3.org/2000/svg" viewBox="0 0 472.32 94.14"><defs><style>.cls-1{fill:none;stroke:#000;stroke-miterlimit:10;stroke-width:1.95px;}</style></defs><line class="cls-1" x1=".69" y1="93.45" x2="93.45" y2=".69"/><line class="cls-1" x1="15.82" y1="93.45" x2="108.58" y2=".69"/><line class="cls-1" x1="30.94" y1="93.45" x2="123.71" y2=".69"/><line class="cls-1" x1="46.07" y1="93.45" x2="138.83" y2=".69"/><line class="cls-1" x1="61.2" y1="93.45" x2="153.96" y2=".69"/><line class="cls-1" x1="76.33" y1="93.45" x2="169.09" y2=".69"/><line class="cls-1" x1="91.45" y1="93.45" x2="184.22" y2=".69"/><line class="cls-1" x1="106.58" y1="93.45" x2="199.34" y2=".69"/><line class="cls-1" x1="121.71" y1="93.45" x2="214.47" y2=".69"/><line class="cls-1" x1="136.83" y1="93.45" x2="229.6" y2=".69"/><line class="cls-1" x1="151.96" y1="93.45" x2="244.72" y2=".69"/><line class="cls-1" x1="167.09" y1="93.45" x2="259.85" y2=".69"/><line class="cls-1" x1="182.22" y1="93.45" x2="274.98" y2=".69"/><line class="cls-1" x1="197.34" y1="93.45" x2="290.11" y2=".69"/><line class="cls-1" x1="212.47" y1="93.45" x2="305.23" y2=".69"/><line class="cls-1" x1="227.6" y1="93.45" x2="320.36" y2=".69"/><line class="cls-1" x1="242.73" y1="93.45" x2="335.49" y2=".69"/><line class="cls-1" x1="257.85" y1="93.45" x2="350.62" y2=".69"/><line class="cls-1" x1="272.98" y1="93.45" x2="365.74" y2=".69"/><line class="cls-1" x1="288.11" y1="93.45" x2="380.87" y2=".69"/><line class="cls-1" x1="303.23" y1="93.45" x2="396" y2=".69"/><line class="cls-1" x1="318.36" y1="93.45" x2="411.12" y2=".69"/><line class="cls-1" x1="333.49" y1="93.45" x2="426.25" y2=".69"/><line class="cls-1" x1="348.62" y1="93.45" x2="441.38" y2=".69"/><line class="cls-1" x1="363.74" y1="93.45" x2="456.51" y2=".69"/><line class="cls-1" x1="378.87" y1="93.45" x2="471.63" y2=".69"/></svg>