<!-- Generator: Adobe Illustrator 24.2.3, SVG Export Plug-In  -->
<svg version="1.1" xmlns="http://www.w3.org/2000/svg" xmlns:xlink="http://www.w3.org/1999/xlink" x="0px" y="0px"
	 width="2580.5px" height="1080.5px" viewBox="0 0 2580.5 1080.5"
	 style="overflow:visible;enable-background:new 0 0 2580.5 1080.5;" xml:space="preserve">
<style type="text/css">
	.st0{opacity:0.35;fill:none;stroke:#000000;stroke-width:0.5;stroke-miterlimit:10;}
</style>
<defs>
</defs>
<rect x="0.2" y="0.2" class="st0" width="322.5" height="270"/>
<rect x="322.8" y="0.2" class="st0" width="322.5" height="270"/>
<rect x="645.2" y="0.2" class="st0" width="322.5" height="270"/>
<rect x="967.8" y="0.2" class="st0" width="322.5" height="270"/>
<rect x="1290.2" y="0.2" class="st0" width="322.5" height="270"/>
<rect x="1612.8" y="0.2" class="st0" width="322.5" height="270"/>
<rect x="1935.2" y="0.2" class="st0" width="322.5" height="270"/>
<rect x="2257.8" y="0.2" class="st0" width="322.5" height="270"/>
<rect x="0.2" y="270.2" class="st0" width="322.5" height="270"/>
<rect x="322.8" y="270.2" class="st0" width="322.5" height="270"/>
<rect x="645.2" y="270.2" class="st0" width="322.5" height="270"/>
<rect x="967.8" y="270.2" class="st0" width="322.5" height="270"/>
<rect x="1290.2" y="270.2" class="st0" width="322.5" height="270"/>
<rect x="1612.8" y="270.2" class="st0" width="322.5" height="270"/>
<rect x="1935.2" y="270.2" class="st0" width="322.5" height="270"/>
<rect x="2257.8" y="270.2" class="st0" width="322.5" height="270"/>
<rect x="0.2" y="540.2" class="st0" width="322.5" height="270"/>
<rect x="322.8" y="540.2" class="st0" width="322.5" height="270"/>
<rect x="645.2" y="540.2" class="st0" width="322.5" height="270"/>
<rect x="967.8" y="540.2" class="st0" width="322.5" height="270"/>
<rect x="1290.2" y="540.2" class="st0" width="322.5" height="270"/>
<rect x="1612.8" y="540.2" class="st0" width="322.5" height="270"/>
<rect x="1935.2" y="540.2" class="st0" width="322.5" height="270"/>
<rect x="2257.8" y="540.2" class="st0" width="322.5" height="270"/>
<rect x="0.2" y="810.2" class="st0" width="322.5" height="270"/>
<rect x="322.8" y="810.2" class="st0" width="322.5" height="270"/>
<rect x="645.2" y="810.2" class="st0" width="322.5" height="270"/>
<rect x="967.8" y="810.2" class="st0" width="322.5" height="270"/>
<rect x="1290.2" y="810.2" class="st0" width="322.5" height="270"/>
<rect x="1612.8" y="810.2" class="st0" width="322.5" height="270"/>
<rect x="1935.2" y="810.2" class="st0" width="322.5" height="270"/>
<rect x="2257.8" y="810.2" class="st0" width="322.5" height="270"/>
<path d="M321,268.5L321,268.5c-1,1-1,2.6,0,3.6l0,0c1,1,2.6,1,3.6,0l0,0c1-1,1-2.6,0-3.6l0,0C323.5,267.5,322,267.5,321,268.5z"/>
<path d="M643.5,268.5L643.5,268.5c-1,1-1,2.6,0,3.6l0,0c1,1,2.6,1,3.6,0l0,0c1-1,1-2.6,0-3.6l0,0C646,267.5,644.5,267.5,643.5,268.5
	z"/>
<path d="M966,268.5L966,268.5c-1,1-1,2.6,0,3.6l0,0c1,1,2.6,1,3.6,0l0,0c1-1,1-2.6,0-3.6l0,0C968.5,267.5,967,267.5,966,268.5z"/>
<path d="M1288.5,268.5L1288.5,268.5c-1,1-1,2.6,0,3.6l0,0c1,1,2.6,1,3.6,0l0,0c1-1,1-2.6,0-3.6l0,0
	C1291,267.5,1289.5,267.5,1288.5,268.5z"/>
<path d="M1611,268.5L1611,268.5c-1,1-1,2.6,0,3.6l0,0c1,1,2.6,1,3.6,0l0,0c1-1,1-2.6,0-3.6l0,0C1613.5,267.5,1612,267.5,1611,268.5z
	"/>
<path d="M1933.5,268.5L1933.5,268.5c-1,1-1,2.6,0,3.6l0,0c1,1,2.6,1,3.6,0l0,0c1-1,1-2.6,0-3.6l0,0
	C1936,267.5,1934.5,267.5,1933.5,268.5z"/>
<path d="M2256,268.5L2256,268.5c-1,1-1,2.6,0,3.6l0,0c1,1,2.6,1,3.6,0l0,0c1-1,1-2.6,0-3.6l0,0C2258.5,267.5,2257,267.5,2256,268.5z
	"/>
<path d="M321,538.5L321,538.5c-1,1-1,2.6,0,3.6l0,0c1,1,2.6,1,3.6,0l0,0c1-1,1-2.6,0-3.6l0,0C323.5,537.5,322,537.5,321,538.5z"/>
<path d="M643.5,538.5L643.5,538.5c-1,1-1,2.6,0,3.6l0,0c1,1,2.6,1,3.6,0l0,0c1-1,1-2.6,0-3.6l0,0C646,537.5,644.5,537.5,643.5,538.5
	z"/>
<path d="M966,538.5L966,538.5c-1,1-1,2.6,0,3.6l0,0c1,1,2.6,1,3.6,0l0,0c1-1,1-2.6,0-3.6l0,0C968.5,537.5,967,537.5,966,538.5z"/>
<path d="M1288.5,538.5L1288.5,538.5c-1,1-1,2.6,0,3.6l0,0c1,1,2.6,1,3.6,0l0,0c1-1,1-2.6,0-3.6l0,0
	C1291,537.5,1289.5,537.5,1288.5,538.5z"/>
<path d="M1611,538.5L1611,538.5c-1,1-1,2.6,0,3.6l0,0c1,1,2.6,1,3.6,0l0,0c1-1,1-2.6,0-3.6l0,0C1613.5,537.5,1612,537.5,1611,538.5z
	"/>
<path d="M1933.5,538.5L1933.5,538.5c-1,1-1,2.6,0,3.6l0,0c1,1,2.6,1,3.6,0l0,0c1-1,1-2.6,0-3.6l0,0
	C1936,537.5,1934.5,537.5,1933.5,538.5z"/>
<path d="M2256,538.5L2256,538.5c-1,1-1,2.6,0,3.6l0,0c1,1,2.6,1,3.6,0l0,0c1-1,1-2.6,0-3.6l0,0C2258.5,537.5,2257,537.5,2256,538.5z
	"/>
<path d="M321,808.5L321,808.5c-1,1-1,2.6,0,3.6l0,0c1,1,2.6,1,3.6,0l0,0c1-1,1-2.6,0-3.6l0,0C323.5,807.5,322,807.5,321,808.5z"/>
<path d="M643.5,808.5L643.5,808.5c-1,1-1,2.6,0,3.6l0,0c1,1,2.6,1,3.6,0l0,0c1-1,1-2.6,0-3.6l0,0C646,807.5,644.5,807.5,643.5,808.5
	z"/>
<path d="M966,808.5L966,808.5c-1,1-1,2.6,0,3.6l0,0c1,1,2.6,1,3.6,0l0,0c1-1,1-2.6,0-3.6l0,0C968.5,807.5,967,807.5,966,808.5z"/>
<path d="M1288.5,808.5L1288.5,808.5c-1,1-1,2.6,0,3.6l0,0c1,1,2.6,1,3.6,0l0,0c1-1,1-2.6,0-3.6l0,0
	C1291,807.5,1289.5,807.5,1288.5,808.5z"/>
<path d="M1611,808.5L1611,808.5c-1,1-1,2.6,0,3.6l0,0c1,1,2.6,1,3.6,0l0,0c1-1,1-2.6,0-3.6l0,0C1613.5,807.5,1612,807.5,1611,808.5z
	"/>
<path d="M1933.5,808.5L1933.5,808.5c-1,1-1,2.6,0,3.6l0,0c1,1,2.6,1,3.6,0l0,0c1-1,1-2.6,0-3.6l0,0
	C1936,807.5,1934.5,807.5,1933.5,808.5z"/>
<path d="M2256,808.5L2256,808.5c-1,1-1,2.6,0,3.6l0,0c1,1,2.6,1,3.6,0l0,0c1-1,1-2.6,0-3.6l0,0C2258.5,807.5,2257,807.5,2256,808.5z
	"/>
<rect x="4.5" y="262.3" width="14.8" height="15.8"/>
<rect x="315.3" y="7" width="14.8" height="15.8"/>
<rect x="637.8" y="7" width="14.8" height="15.8"/>
<rect x="960.3" y="7" width="14.8" height="15.8"/>
<rect x="1282.8" y="7" width="14.8" height="15.8"/>
<rect x="1605.3" y="7" width="14.8" height="15.8"/>
<rect x="1927.8" y="7" width="14.8" height="15.8"/>
<rect x="2250.3" y="7" width="14.8" height="15.8"/>
<rect x="4.5" y="532.3" width="14.8" height="15.8"/>
<rect x="4.5" y="802.3" width="14.8" height="15.8"/>
</svg>
