<!-- Generator: Adobe Illustrator 24.2.3, SVG Export Plug-In  -->
<svg version="1.1" xmlns="http://www.w3.org/2000/svg" xmlns:xlink="http://www.w3.org/1999/xlink" x="0px" y="0px" width="221.3px"
	 height="29.1px" viewBox="0 0 221.3 29.1" style="overflow:visible;enable-background:new 0 0 221.3 29.1;" xml:space="preserve">
<style type="text/css">
	.st0{fill:#404040;}
</style>
<defs>
</defs>
<path class="st0" d="M6.9,6.9h24.2v8.7H6.9V6.9z M0,0v22.5h33.2l6.6,6.6l4.9-4.9l-6.6-6.6V0H0z"/>
<polygon class="st0" points="72.7,0 72.7,15.6 51.6,15.6 48.5,12.4 48.5,0 41.6,0 41.6,15.3 48.8,22.5 79.6,22.5 79.6,0 "/>
<path class="st0" d="M90,6.9h24.2v3.5H90V6.9z M83.1,0v22.5H90v-5.2h24.2v5.2h6.9V0H83.1z"/>
<path class="st0" d="M131.6,6.9h21.1l3.2,3.2v5.5h-24.2V6.9z M124.7,0v22.5h38.1V7.2L155.5,0H124.7z"/>
<path class="st0" d="M173.7,6.6c-0.1,0-0.1,0.1-0.1,0.1v3c0,0.1,0.1,0.1,0.1,0.1h8.8c0.1,0,0.1-0.1,0.1-0.1v-3
	c0-0.1-0.1-0.1-0.1-0.1H173.7z"/>
<path class="st0" d="M173.7,12.3c-0.1,0-0.1,0-0.1,0.1v3.2c0,0.1,0.1,0.1,0.1,0.1h8.8c0.1,0,0.1-0.1,0.1-0.1v-3.2
	c0-0.1-0.1-0.1-0.1-0.1H173.7z"/>
<polygon class="st0" points="195.8,12.1 195.8,8.1 190.8,12.1 "/>
<path class="st0" d="M166.2,22.2h55.1V0.1h-55.1V22.2z M185.3,9.5c0,0.5-0.1,1-0.4,1.4c0.3,0.4,0.4,0.9,0.4,1.4v3.2
	c0,1.5-1.2,2.8-2.8,2.8h-8.8c-1.5,0-2.8-1.2-2.8-2.8v-3.2c0-0.5,0.1-1,0.4-1.4c-0.3-0.4-0.4-0.9-0.4-1.4V6.7c0-1.5,1.2-2.8,2.8-2.8
	h8.8c1.4,0,2.6,1,2.8,2.3V9.5z M200.4,14.7h-2v3.6h-2.6v-3.6h-9.1v-2.5l9.3-8.4h2.5v8.2h2V14.7z M216.6,15.6c0,1.5-1.2,2.8-2.8,2.8
	H205c-1.4,0-2.5-1.1-2.8-2.6h11.6c0.1,0,0.1-0.1,0.1-0.1v-2.9c0-0.1-0.1-0.1-0.1-0.1H205c-1.5,0-2.8-1.2-2.8-2.8V6.7
	c0-1.5,1.2-2.8,2.8-2.8h8.8c1.5,0,2.8,1.2,2.8,2.8V15.6z"/>
<path class="st0" d="M205,6.6c-0.1,0-0.1,0.1-0.1,0.1v3.1c0,0.1,0,0.1,0.1,0.1h8.9V6.7c0-0.1-0.1-0.1-0.1-0.1H205z"/>
</svg>
